<svg viewBox="0 0 64 64" xmlns="http://www.w3.org/2000/svg"><g id="Addressbook-contact-contact_list" data-name="Addressbook-contact-contact list"><path d="m11 3h42v58h-42z" fill="#ffeb99"></path><path d="m44 25a10.973 10.973 0 0 1 -3.29 7.85 8.123 8.123 0 0 0 -2.05-3.51 8.009 8.009 0 0 0 -13.37 3.51 11 11 0 1 1 18.71-7.85z" fill="#c2fb3b"></path><circle cx="33" cy="23" fill="#2488ff" r="4"></circle><path d="m38.66 29.34a8.123 8.123 0 0 1 2.05 3.51 11.011 11.011 0 0 1 -15.42 0 8.009 8.009 0 0 1 13.37-3.51z" fill="#ff9811"></path><g fill="#2488ff"><path d="m58 5v6l-5 4v-10z"></path><path d="m58 18v6l-5 4v-10z"></path><path d="m58 31v6l-5 4v-10z"></path></g><path d="m58.62 11.78a1 1 0 0 0 .38-.78v-6a1 1 0 0 0 -1-1h-4v-1a1 1 0 0 0 -1-1h-42a1 1 0 0 0 -1 1v9h-1.5a3.5 3.5 0 0 0 0 7h1.5v4h-1.5a3.5 3.5 0 0 0 0 7h1.5v4h-1.5a3.5 3.5 0 0 0 0 7h1.5v4h-1.5a3.5 3.5 0 0 0 0 7h1.5v9a1 1 0 0 0 1 1h42a1 1 0 0 0 1-1v-19.52l4.62-3.7a1 1 0 0 0 .38-.78v-6a1 1 0 0 0 -1-1h-4v-1.52l4.62-3.7a1 1 0 0 0 .38-.78v-6a1 1 0 0 0 -1-1h-4v-1.52zm-4.62-5.78h3v4.52l-3 2.4zm-44 44h-1.5a1.5 1.5 0 0 1 0-3h1.5zm0-11h-1.5a1.5 1.5 0 0 1 0-3h1.5zm0-11h-1.5a1.5 1.5 0 0 1 0-3h1.5zm0-11h-1.5a1.5 1.5 0 0 1 0-3h1.5zm42 43h-40v-8h1.28a2 2 0 1 0 0-2h-1.28v-9h1.28a2 2 0 1 0 0-2h-1.28v-9h1.28a2 2 0 1 0 0-2h-1.28v-9h1.28a2 2 0 1 0 0-2h-1.28v-13h40zm5-28v4.52l-3 2.4v-6.92zm0-13v4.52l-3 2.4v-6.92z"></path><path d="m33 37a12 12 0 1 0 -12-12 12.013 12.013 0 0 0 12 12zm0-2a9.949 9.949 0 0 1 -6.536-2.449 6.986 6.986 0 0 1 11.485-2.508 7.147 7.147 0 0 1 1.595 2.5 9.949 9.949 0 0 1 -6.544 2.457zm-3-12a3 3 0 1 1 3 3 3 3 0 0 1 -3-3zm3-8a9.981 9.981 0 0 1 8.018 15.951 9.182 9.182 0 0 0 -1.653-2.321 9.035 9.035 0 0 0 -2.982-1.971 5 5 0 1 0 -6.757.007 9.04 9.04 0 0 0 -4.653 4.272 9.981 9.981 0 0 1 8.027-15.938z"></path></g></svg>